<svg width="512" height="512" viewBox="0 0 512 512" fill="none" xmlns="http://www.w3.org/2000/svg">
  <defs>
    <linearGradient id="bg" x1="0" y1="0" x2="512" y2="512" gradientUnits="userSpaceOnUse">
      <stop stop-color="#F6EFE8"/>
      <stop offset="1" stop-color="#E9DED3"/>
    </linearGradient>
  </defs>

  <rect width="512" height="512" rx="28" fill="url(#bg)"/>

  <ellipse cx="256" cy="430" rx="120" ry="28" fill="#D4C2B1" opacity="0.5"/>

  <path d="M150 186L190 120L228 188" fill="#C88B5A"/>
  <path d="M362 186L322 120L284 188" fill="#C88B5A"/>
  <path d="M184 181L203 151L220 181" fill="#F7C8A8"/>
  <path d="M328 181L309 151L292 181" fill="#F7C8A8"/>

  <circle cx="256" cy="256" r="145" fill="#D99A67"/>

  <ellipse cx="200" cy="286" rx="30" ry="24" fill="#F7C8A8"/>
  <ellipse cx="312" cy="286" rx="30" ry="24" fill="#F7C8A8"/>

  <circle cx="196" cy="232" r="42" fill="none" stroke="#2C3440" stroke-width="10"/>
  <circle cx="316" cy="232" r="42" fill="none" stroke="#2C3440" stroke-width="10"/>
  <rect x="238" y="227" width="36" height="10" rx="5" fill="#2C3440"/>

  <circle cx="196" cy="235" r="13" fill="#2C3440"/>
  <circle cx="316" cy="235" r="13" fill="#2C3440"/>
  <circle cx="201" cy="230" r="4" fill="white"/>
  <circle cx="321" cy="230" r="4" fill="white"/>

  <path d="M256 252L243 270H269L256 252Z" fill="#8B5A3C"/>
  <path d="M256 271C247 271 240 278 240 287C240 295 247 301 256 301C265 301 272 295 272 287C272 278 265 271 256 271Z" fill="#F6B0A6"/>
  <path d="M256 281V301" stroke="#8B5A3C" stroke-width="4" stroke-linecap="round"/>

  <path d="M227 286H171" stroke="#8B5A3C" stroke-width="4" stroke-linecap="round"/>
  <path d="M227 295H168" stroke="#8B5A3C" stroke-width="4" stroke-linecap="round"/>
  <path d="M285 286H341" stroke="#8B5A3C" stroke-width="4" stroke-linecap="round"/>
  <path d="M285 295H344" stroke="#8B5A3C" stroke-width="4" stroke-linecap="round"/>

  <path d="M210 342C224 356 241 364 256 364C271 364 288 356 302 342" stroke="#8B5A3C" stroke-width="6" stroke-linecap="round"/>

  <path d="M176 332C176 309 194 291 217 291H295C318 291 336 309 336 332V348C336 391 301 426 258 426H254C211 426 176 391 176 348V332Z" fill="#D99A67"/>
  <path d="M232 370H280" stroke="#8B5A3C" stroke-width="6" stroke-linecap="round"/>

  <text x="256" y="474" text-anchor="middle" font-family="Arial, sans-serif" font-size="28" font-weight="700" fill="#6B3E2A">Senior Cat</text>
</svg>
